<svg width="32" height="32" viewBox="0 0 32 32" fill="none" xmlns="http://www.w3.org/2000/svg">
<path fill-rule="evenodd" clip-rule="evenodd" d="M15.9965 0C19.1603 0 22.2531 0.938486 24.8837 2.69678C27.5143 4.45508 29.5646 6.95421 30.7753 9.87814C31.9861 12.8021 32.3029 16.0195 31.6856 19.1235C31.0684 22.2276 29.5449 25.0788 27.3077 27.3167C25.0706 29.5546 22.2203 31.0786 19.1173 31.696C16.0142 32.3135 12.7979 31.9966 9.87491 30.7854C6.95193 29.5743 4.45362 27.5233 2.6959 24.8918C0.938179 22.2604 0 19.1666 0 16.0017C0.000926357 11.7581 1.68657 7.68854 4.68629 4.68783C7.68602 1.68712 11.7543 0.000926661 15.9965 0V0ZM15.9965 25.5895C16.2633 25.5776 16.5232 25.5011 16.7538 25.3665C16.9845 25.232 17.1791 25.0434 17.3208 24.817C19.2182 22.2759 23.4392 17.0364 23.4392 13.8451C23.4392 11.8715 22.6554 9.97867 21.2603 8.58309C19.8652 7.18752 17.973 6.4035 16 6.4035C14.027 6.4035 12.1348 7.18752 10.7397 8.58309C9.34459 9.97867 8.56082 11.8715 8.56082 13.8451C8.56082 17.0364 12.7958 22.2759 14.6757 24.817C14.8164 25.0431 15.0096 25.2318 15.239 25.3669C15.4684 25.5021 15.7271 25.5796 15.993 25.593L15.9965 25.5895ZM15.9965 10.3882C16.6808 10.3882 17.3498 10.5912 17.9187 10.9716C18.4877 11.352 18.9311 11.8927 19.1928 12.5252C19.4545 13.1577 19.5228 13.8536 19.389 14.525C19.2553 15.1963 18.9255 15.8129 18.4413 16.2967C17.9572 16.7805 17.3405 17.1098 16.6692 17.2429C15.998 17.3761 15.3023 17.307 14.6703 17.0446C14.0382 16.7822 13.4982 16.3381 13.1185 15.7686C12.7388 15.199 12.5365 14.5297 12.5372 13.8451C12.5391 12.9282 12.9042 12.0495 13.5527 11.4015C14.2011 10.7535 15.0799 10.3891 15.9965 10.3882Z" fill="#F1AB15"/>
</svg>
