<svg width="32" height="32" viewBox="0 0 32 32" fill="none" xmlns="http://www.w3.org/2000/svg">
<path fill-rule="evenodd" clip-rule="evenodd" d="M15.9965 0.00341797C19.1603 0.00341797 22.2531 0.941904 24.8837 2.7002C27.5143 4.45849 29.5646 6.95762 30.7753 9.88156C31.9861 12.8055 32.3029 16.0229 31.6856 19.127C31.0684 22.231 29.5449 25.0822 27.3077 27.3201C25.0706 29.558 22.2203 31.082 19.1173 31.6994C16.0142 32.3169 12.7979 32 9.87491 30.7889C6.95193 29.5777 4.45362 27.5267 2.6959 24.8953C0.938179 22.2638 0 19.17 0 16.0052C0.000926357 11.7615 1.68657 7.69195 4.68629 4.69124C7.68602 1.69054 11.7543 0.00434463 15.9965 0.00341797V0.00341797ZM20.8604 25.0546C16.7513 26.5996 11.8733 24.775 9.45185 20.5806C7.03036 16.3862 7.90041 11.2515 11.2828 8.46568C11.3015 8.50421 11.3225 8.54157 11.3457 8.57753L14.3263 13.7472L14.3857 13.838C12.2891 14.8867 11.157 15.4144 12.967 18.5498C14.777 21.6851 15.7938 20.9546 17.7611 19.6718C17.7763 19.7219 17.7974 19.77 17.824 19.8151L20.8045 24.9812C20.8255 25.0022 20.836 25.0337 20.857 25.0546H20.8604ZM18.7639 18.2806L19.6549 17.7633C19.8555 17.6502 20.0925 17.6205 20.3148 17.6807C20.5371 17.7408 20.7268 17.886 20.843 18.0849L23.827 23.2545C23.9401 23.4552 23.9698 23.6923 23.9097 23.9146C23.8495 24.137 23.7044 24.3267 23.5056 24.443L22.6145 24.9533C22.516 25.0117 22.4069 25.05 22.2935 25.0659C22.1802 25.0819 22.0647 25.0752 21.9539 25.0463C21.8431 25.0174 21.7392 24.9668 21.648 24.8974C21.5569 24.828 21.4804 24.7413 21.423 24.6422L18.4285 19.4726C18.3143 19.2716 18.284 19.0337 18.3442 18.8105C18.4044 18.5873 18.5502 18.3969 18.7499 18.2806H18.7639ZM12.2682 7.04656L13.1487 6.53974C13.2469 6.48073 13.3558 6.44185 13.4692 6.42538C13.5825 6.40891 13.698 6.41517 13.8089 6.4438C13.9198 6.47243 14.0239 6.52285 14.1151 6.59213C14.2064 6.66141 14.2829 6.74816 14.3402 6.84733L17.3208 12.017C17.3792 12.1155 17.4175 12.2246 17.4334 12.3381C17.4494 12.4515 17.4427 12.567 17.4138 12.6778C17.3849 12.7886 17.3343 12.8926 17.2649 12.9838C17.1956 13.0749 17.1089 13.1514 17.0098 13.2089L16.1188 13.7262C15.9177 13.8395 15.6801 13.8693 15.4573 13.8092C15.2345 13.749 15.0441 13.6037 14.9273 13.4046L11.9467 8.23848C11.8325 8.03751 11.8022 7.79958 11.8624 7.57639C11.9226 7.3532 12.0684 7.1628 12.2682 7.04656Z" fill="#F1AB15"/>
</svg>
