<svg width="20" height="36" viewBox="0 0 20 36" fill="none" xmlns="http://www.w3.org/2000/svg">
<path d="M1.32016 32.5456C1.16215 32.7125 1.03858 32.909 0.956493 33.1237C0.874406 33.3384 0.835415 33.5672 0.841745 33.797C0.848076 34.0267 0.899603 34.253 0.993387 34.4629C1.08717 34.6728 1.22137 34.8621 1.38833 35.0201C1.55528 35.1781 1.75173 35.3017 1.96644 35.3838C2.18116 35.4659 2.40994 35.5049 2.63972 35.4985C2.86951 35.4922 3.09579 35.4407 3.30566 35.3469C3.51553 35.2531 3.70487 35.1189 3.86288 34.9519L18.7495 19.2129C19.0569 18.8882 19.2284 18.4582 19.2288 18.011C19.2291 17.5639 19.0582 17.1336 18.7513 16.8084L3.88794 1.0457C3.73122 0.874855 3.54212 0.736844 3.33162 0.639696C3.12112 0.542548 2.89342 0.488196 2.66173 0.479792C2.43005 0.471389 2.199 0.509106 1.98202 0.590752C1.76503 0.672398 1.56644 0.796335 1.39776 0.955383C1.22908 1.11443 1.09368 1.30541 0.999436 1.51722C0.905188 1.72904 0.853967 1.95747 0.848749 2.18925C0.843529 2.42102 0.884416 2.65153 0.969034 2.86737C1.05365 3.08321 1.18031 3.28009 1.34166 3.44657L15.0719 18.008L1.32016 32.5456Z" fill="#F1AB15"/>
</svg>
