<svg width="32" height="32" viewBox="0 0 32 32" fill="none" xmlns="http://www.w3.org/2000/svg">
<path fill-rule="evenodd" clip-rule="evenodd" d="M16.0017 0.0034195C19.1666 0.0034195 22.2604 0.941905 24.8918 2.7002C27.5233 4.45849 29.5743 6.95762 30.7854 9.88156C31.9966 12.8055 32.3135 16.0229 31.696 19.1269C31.0786 22.231 29.5546 25.0822 27.3167 27.3201C25.0788 29.558 22.2276 31.082 19.1235 31.6994C16.0195 32.3169 12.8021 32 9.87814 30.7888C6.95421 29.5777 4.45508 27.5267 2.69678 24.8953C0.938487 22.2638 1.5285e-06 19.17 1.5285e-06 16.0052C-0.00091722 13.9035 0.412353 11.8223 1.21619 9.88047C2.02003 7.93864 3.19867 6.17426 4.68475 4.68817C6.17084 3.20209 7.93522 2.02345 9.87706 1.21961C11.8189 0.415771 13.9001 0.00250075 16.0017 0.0034195ZM25.5895 14.967C25.6008 16.0211 25.4147 17.0679 25.0407 18.0534C24.7454 18.9189 24.2197 19.6875 23.5203 20.2765C22.874 20.8024 22.064 21.0856 21.2308 21.0769C20.6866 21.0774 20.1538 20.9209 19.6963 20.626C19.2679 20.3711 18.9313 19.9868 18.7351 19.5285H18.5254C18.1422 20.0139 17.6518 20.404 17.0927 20.6684C16.5337 20.9328 15.921 21.0642 15.3027 21.0525C13.9045 21.0525 12.828 20.626 12.031 19.7976C11.2341 18.9692 10.8356 17.8297 10.8356 16.3862C10.8049 15.6489 10.929 14.9135 11.1999 14.2272C11.4708 13.5409 11.8825 12.9189 12.4085 12.4015C13.4571 11.3948 14.8238 10.888 16.5226 10.888C17.2688 10.8934 18.0134 10.9589 18.7491 11.0837C19.4293 11.1791 20.1005 11.3311 20.7554 11.5381L20.4863 17.274C20.4863 18.361 20.7764 18.8993 21.3741 18.8993C21.8739 18.8993 22.2759 18.5498 22.566 17.8018C22.901 16.8834 23.0553 15.909 23.0204 14.9321C23.0414 13.7744 22.7672 12.6304 22.2235 11.608C21.7308 10.6622 20.9614 9.88913 20.0179 9.39195C19.0104 8.87339 17.8896 8.61391 16.7567 8.63695C15.3249 8.60126 13.9083 8.93853 12.6462 9.61565C11.4833 10.2471 10.5452 11.2242 9.96177 12.4119C9.31707 13.7296 8.9948 15.1816 9.02152 16.6483C9.02152 18.8049 9.60175 20.4722 10.7482 21.6187C11.8947 22.7652 13.5865 23.3664 15.7711 23.3664C16.6963 23.355 17.6185 23.2567 18.5254 23.0728C19.5269 22.8947 20.5106 22.628 21.465 22.2758V24.5234C19.6911 25.2483 17.7884 25.605 15.8724 25.572C12.9014 25.572 10.5851 24.7925 8.92365 23.2336C7.26219 21.6746 6.42796 19.5063 6.42097 16.7287C6.39599 14.8965 6.83232 13.0875 7.68979 11.4682C8.52153 9.91185 9.78023 8.62526 11.318 7.75962C12.9748 6.84418 14.8431 6.38012 16.7358 6.4139C18.3338 6.38353 19.9152 6.74347 21.3427 7.46251C22.6604 8.14065 23.7478 9.19395 24.4675 10.4895C25.2252 11.8645 25.6074 13.4149 25.5755 14.9845L25.5895 14.967ZM13.5655 16.4316C13.5655 18.0884 14.2401 18.9063 15.5858 18.9063C15.894 18.9252 16.2021 18.867 16.4822 18.737C16.7623 18.607 17.0056 18.4093 17.1902 18.1618C17.5642 17.6655 17.7809 16.8685 17.8648 15.75L18.0186 13.1599C17.5732 13.0626 17.1182 13.0169 16.6624 13.0236C16.239 13.0011 15.8159 13.071 15.4223 13.2285C15.0287 13.3861 14.6742 13.6275 14.3834 13.9359C13.8072 14.6356 13.5152 15.5265 13.5655 16.4316Z" fill="#F1AB15"/>
</svg>
