<svg xmlns="http://www.w3.org/2000/svg" xmlns:xlink="http://www.w3.org/1999/xlink"><symbol id="icon-close" viewBox="0 0 24 24"><g fill="none">
<path fill-rule="evenodd" clip-rule="evenodd" d="M18.7071 5.29289C19.0976 5.68342 19.0976 6.31658 18.7071 6.70711L6.70711 18.7071C6.31658 19.0976 5.68342 19.0976 5.29289 18.7071C4.90237 18.3166 4.90237 17.6834 5.29289 17.2929L17.2929 5.29289C17.6834 4.90237 18.3166 4.90237 18.7071 5.29289Z" fill="currentColor"/>
<path fill-rule="evenodd" clip-rule="evenodd" d="M5.29289 5.29289C5.68342 4.90237 6.31658 4.90237 6.70711 5.29289L18.7071 17.2929C19.0976 17.6834 19.0976 18.3166 18.7071 18.7071C18.3166 19.0976 17.6834 19.0976 17.2929 18.7071L5.29289 6.70711C4.90237 6.31658 4.90237 5.68342 5.29289 5.29289Z" fill="currentColor"/>
</g></symbol><symbol id="icon-email" viewBox="0 0 32 32"><g fill="none">
<path fill-rule="evenodd" clip-rule="evenodd" d="M16.0017 0.0034195C19.1666 0.0034195 22.2604 0.941905 24.8918 2.7002C27.5233 4.45849 29.5743 6.95762 30.7854 9.88156C31.9966 12.8055 32.3135 16.0229 31.696 19.1269C31.0786 22.231 29.5546 25.0822 27.3167 27.3201C25.0788 29.558 22.2276 31.082 19.1235 31.6994C16.0195 32.3169 12.8021 32 9.87814 30.7888C6.95421 29.5777 4.45508 27.5267 2.69678 24.8953C0.938487 22.2638 1.5285e-06 19.17 1.5285e-06 16.0052C-0.00091722 13.9035 0.412353 11.8223 1.21619 9.88047C2.02003 7.93864 3.19867 6.17426 4.68475 4.68817C6.17084 3.20209 7.93522 2.02345 9.87706 1.21961C11.8189 0.415771 13.9001 0.00250075 16.0017 0.0034195ZM25.5895 14.967C25.6008 16.0211 25.4147 17.0679 25.0407 18.0534C24.7454 18.9189 24.2197 19.6875 23.5203 20.2765C22.874 20.8024 22.064 21.0856 21.2308 21.0769C20.6866 21.0774 20.1538 20.9209 19.6963 20.626C19.2679 20.3711 18.9313 19.9868 18.7351 19.5285H18.5254C18.1422 20.0139 17.6518 20.404 17.0927 20.6684C16.5337 20.9328 15.921 21.0642 15.3027 21.0525C13.9045 21.0525 12.828 20.626 12.031 19.7976C11.2341 18.9692 10.8356 17.8297 10.8356 16.3862C10.8049 15.6489 10.929 14.9135 11.1999 14.2272C11.4708 13.5409 11.8825 12.9189 12.4085 12.4015C13.4571 11.3948 14.8238 10.888 16.5226 10.888C17.2688 10.8934 18.0134 10.9589 18.7491 11.0837C19.4293 11.1791 20.1005 11.3311 20.7554 11.5381L20.4863 17.274C20.4863 18.361 20.7764 18.8993 21.3741 18.8993C21.8739 18.8993 22.2759 18.5498 22.566 17.8018C22.901 16.8834 23.0553 15.909 23.0204 14.9321C23.0414 13.7744 22.7672 12.6304 22.2235 11.608C21.7308 10.6622 20.9614 9.88913 20.0179 9.39195C19.0104 8.87339 17.8896 8.61391 16.7567 8.63695C15.3249 8.60126 13.9083 8.93853 12.6462 9.61565C11.4833 10.2471 10.5452 11.2242 9.96177 12.4119C9.31707 13.7296 8.9948 15.1816 9.02152 16.6483C9.02152 18.8049 9.60175 20.4722 10.7482 21.6187C11.8947 22.7652 13.5865 23.3664 15.7711 23.3664C16.6963 23.355 17.6185 23.2567 18.5254 23.0728C19.5269 22.8947 20.5106 22.628 21.465 22.2758V24.5234C19.6911 25.2483 17.7884 25.605 15.8724 25.572C12.9014 25.572 10.5851 24.7925 8.92365 23.2336C7.26219 21.6746 6.42796 19.5063 6.42097 16.7287C6.39599 14.8965 6.83232 13.0875 7.68979 11.4682C8.52153 9.91185 9.78023 8.62526 11.318 7.75962C12.9748 6.84418 14.8431 6.38012 16.7358 6.4139C18.3338 6.38353 19.9152 6.74347 21.3427 7.46251C22.6604 8.14065 23.7478 9.19395 24.4675 10.4895C25.2252 11.8645 25.6074 13.4149 25.5755 14.9845L25.5895 14.967ZM13.5655 16.4316C13.5655 18.0884 14.2401 18.9063 15.5858 18.9063C15.894 18.9252 16.2021 18.867 16.4822 18.737C16.7623 18.607 17.0056 18.4093 17.1902 18.1618C17.5642 17.6655 17.7809 16.8685 17.8648 15.75L18.0186 13.1599C17.5732 13.0626 17.1182 13.0169 16.6624 13.0236C16.239 13.0011 15.8159 13.071 15.4223 13.2285C15.0287 13.3861 14.6742 13.6275 14.3834 13.9359C13.8072 14.6356 13.5152 15.5265 13.5655 16.4316Z" fill="#F1AB15"/>
</g></symbol><symbol id="icon-faq-down-arrow" viewBox="0 0 10 5"><g fill="none">
<path d="M0 0L5 5L10 0H0Z" fill="#616C78"/>
</g></symbol><symbol id="icon-map-marker" viewBox="0 0 32 32"><g fill="none">
<path fill-rule="evenodd" clip-rule="evenodd" d="M15.9965 0C19.1603 0 22.2531 0.938486 24.8837 2.69678C27.5143 4.45508 29.5646 6.95421 30.7753 9.87814C31.9861 12.8021 32.3029 16.0195 31.6856 19.1235C31.0684 22.2276 29.5449 25.0788 27.3077 27.3167C25.0706 29.5546 22.2203 31.0786 19.1173 31.696C16.0142 32.3135 12.7979 31.9966 9.87491 30.7854C6.95193 29.5743 4.45362 27.5233 2.6959 24.8918C0.938179 22.2604 0 19.1666 0 16.0017C0.000926357 11.7581 1.68657 7.68854 4.68629 4.68783C7.68602 1.68712 11.7543 0.000926661 15.9965 0V0ZM15.9965 25.5895C16.2633 25.5776 16.5232 25.5011 16.7538 25.3665C16.9845 25.232 17.1791 25.0434 17.3208 24.817C19.2182 22.2759 23.4392 17.0364 23.4392 13.8451C23.4392 11.8715 22.6554 9.97867 21.2603 8.58309C19.8652 7.18752 17.973 6.4035 16 6.4035C14.027 6.4035 12.1348 7.18752 10.7397 8.58309C9.34459 9.97867 8.56082 11.8715 8.56082 13.8451C8.56082 17.0364 12.7958 22.2759 14.6757 24.817C14.8164 25.0431 15.0096 25.2318 15.239 25.3669C15.4684 25.5021 15.7271 25.5796 15.993 25.593L15.9965 25.5895ZM15.9965 10.3882C16.6808 10.3882 17.3498 10.5912 17.9187 10.9716C18.4877 11.352 18.9311 11.8927 19.1928 12.5252C19.4545 13.1577 19.5228 13.8536 19.389 14.525C19.2553 15.1963 18.9255 15.8129 18.4413 16.2967C17.9572 16.7805 17.3405 17.1098 16.6692 17.2429C15.998 17.3761 15.3023 17.307 14.6703 17.0446C14.0382 16.7822 13.4982 16.3381 13.1185 15.7686C12.7388 15.199 12.5365 14.5297 12.5372 13.8451C12.5391 12.9282 12.9042 12.0495 13.5527 11.4015C14.2011 10.7535 15.0799 10.3891 15.9965 10.3882Z" fill="#F1AB15"/>
</g></symbol><symbol id="icon-mask-goods" viewBox="0 0 1383 411"><g fill="none">
<path opacity="0.1" d="M807.611 70.304C839.002 -120.615 327.06 135.639 189.871 188.455L-129.5 387.189C-129.5 387.189 1161.99 488.608 1332.73 268.656C1447.83 120.381 1357.14 13.9673 1143.61 89.083C971.161 149.745 745.017 451.001 807.611 70.304Z" fill="white"/>
</g></symbol><symbol id="icon-mask" viewBox="0 0 1441 562"><g fill="none">
<path d="M1441 0H0V522.535L728.815 562L1441 522.535V0Z" fill="#222222"/>
</g></symbol><symbol id="icon-phone-2" viewBox="0 0 32 32"><g fill="none">
<path fill-rule="evenodd" clip-rule="evenodd" d="M15.9965 0.00341797C19.1603 0.00341797 22.2531 0.941904 24.8837 2.7002C27.5143 4.45849 29.5646 6.95762 30.7753 9.88156C31.9861 12.8055 32.3029 16.0229 31.6856 19.127C31.0684 22.231 29.5449 25.0822 27.3077 27.3201C25.0706 29.558 22.2203 31.082 19.1173 31.6994C16.0142 32.3169 12.7979 32 9.87491 30.7889C6.95193 29.5777 4.45362 27.5267 2.6959 24.8953C0.938179 22.2638 0 19.17 0 16.0052C0.000926357 11.7615 1.68657 7.69195 4.68629 4.69124C7.68602 1.69054 11.7543 0.00434463 15.9965 0.00341797V0.00341797ZM20.8604 25.0546C16.7513 26.5996 11.8733 24.775 9.45185 20.5806C7.03036 16.3862 7.90041 11.2515 11.2828 8.46568C11.3015 8.50421 11.3225 8.54157 11.3457 8.57753L14.3263 13.7472L14.3857 13.838C12.2891 14.8867 11.157 15.4144 12.967 18.5498C14.777 21.6851 15.7938 20.9546 17.7611 19.6718C17.7763 19.7219 17.7974 19.77 17.824 19.8151L20.8045 24.9812C20.8255 25.0022 20.836 25.0337 20.857 25.0546H20.8604ZM18.7639 18.2806L19.6549 17.7633C19.8555 17.6502 20.0925 17.6205 20.3148 17.6807C20.5371 17.7408 20.7268 17.886 20.843 18.0849L23.827 23.2545C23.9401 23.4552 23.9698 23.6923 23.9097 23.9146C23.8495 24.137 23.7044 24.3267 23.5056 24.443L22.6145 24.9533C22.516 25.0117 22.4069 25.05 22.2935 25.0659C22.1802 25.0819 22.0647 25.0752 21.9539 25.0463C21.8431 25.0174 21.7392 24.9668 21.648 24.8974C21.5569 24.828 21.4804 24.7413 21.423 24.6422L18.4285 19.4726C18.3143 19.2716 18.284 19.0337 18.3442 18.8105C18.4044 18.5873 18.5502 18.3969 18.7499 18.2806H18.7639ZM12.2682 7.04656L13.1487 6.53974C13.2469 6.48073 13.3558 6.44185 13.4692 6.42538C13.5825 6.40891 13.698 6.41517 13.8089 6.4438C13.9198 6.47243 14.0239 6.52285 14.1151 6.59213C14.2064 6.66141 14.2829 6.74816 14.3402 6.84733L17.3208 12.017C17.3792 12.1155 17.4175 12.2246 17.4334 12.3381C17.4494 12.4515 17.4427 12.567 17.4138 12.6778C17.3849 12.7886 17.3343 12.8926 17.2649 12.9838C17.1956 13.0749 17.1089 13.1514 17.0098 13.2089L16.1188 13.7262C15.9177 13.8395 15.6801 13.8693 15.4573 13.8092C15.2345 13.749 15.0441 13.6037 14.9273 13.4046L11.9467 8.23848C11.8325 8.03751 11.8022 7.79958 11.8624 7.57639C11.9226 7.3532 12.0684 7.1628 12.2682 7.04656Z" fill="#F1AB15"/>
</g></symbol><symbol id="icon-phone" viewBox="0 0 32 32"><path d="M11.748 5.773S11.418 5 10.914 5c-.496 0-.754.229-.926.387S6.938 7.91 6.938 7.91s-.837.731-.773 2.106c.054 1.375.323 3.332 1.719 6.058 1.386 2.72 4.855 6.876 7.047 8.337 0 0 2.031 1.558 3.921 2.191.549.173 1.647.398 1.903.398.26 0 .719 0 1.246-.385.536-.389 3.543-2.807 3.543-2.807s.736-.665-.119-1.438c-.859-.773-3.467-2.492-4.025-2.944-.559-.459-1.355-.257-1.699.054-.343.313-.956.828-1.031.893-.112.086-.419.365-.763.226-.438-.173-2.234-1.148-3.899-3.426-1.655-2.276-1.837-3.02-2.084-3.824a.56.56 0 0 1 .225-.657c.248-.172 1.161-.933 1.161-.933s.591-.583.344-1.27-1.906-4.716-1.906-4.716z"/></symbol><symbol id="icon-slider-right-arrow" viewBox="0 0 20 36"><g fill="none">
<path d="M1.32016 32.5456C1.16215 32.7125 1.03858 32.909 0.956493 33.1237C0.874406 33.3384 0.835415 33.5672 0.841745 33.797C0.848076 34.0267 0.899603 34.253 0.993387 34.4629C1.08717 34.6728 1.22137 34.8621 1.38833 35.0201C1.55528 35.1781 1.75173 35.3017 1.96644 35.3838C2.18116 35.4659 2.40994 35.5049 2.63972 35.4985C2.86951 35.4922 3.09579 35.4407 3.30566 35.3469C3.51553 35.2531 3.70487 35.1189 3.86288 34.9519L18.7495 19.2129C19.0569 18.8882 19.2284 18.4582 19.2288 18.011C19.2291 17.5639 19.0582 17.1336 18.7513 16.8084L3.88794 1.0457C3.73122 0.874855 3.54212 0.736844 3.33162 0.639696C3.12112 0.542548 2.89342 0.488196 2.66173 0.479792C2.43005 0.471389 2.199 0.509106 1.98202 0.590752C1.76503 0.672398 1.56644 0.796335 1.39776 0.955383C1.22908 1.11443 1.09368 1.30541 0.999436 1.51722C0.905188 1.72904 0.853967 1.95747 0.848749 2.18925C0.843529 2.42102 0.884416 2.65153 0.969034 2.86737C1.05365 3.08321 1.18031 3.28009 1.34166 3.44657L15.0719 18.008L1.32016 32.5456Z" fill="#F1AB15"/>
</g></symbol><symbol id="icon-star" viewBox="0 0 15 14"><g fill="none">
<path d="M7.5 0L9.18386 5.18237H14.6329L10.2245 8.38525L11.9084 13.5676L7.5 10.3647L3.09161 13.5676L4.77547 8.38525L0.367076 5.18237H5.81614L7.5 0Z" fill="#696868"/>
</g></symbol></svg>